<svg width="19" height="18" viewBox="0 0 19 18" fill="none" xmlns="http://www.w3.org/2000/svg">
<path fill-rule="evenodd" clip-rule="evenodd" d="M8.8748 0C13.7683 0 17.7487 3.60199 17.7487 8.03025C17.7487 10.1195 16.8627 12.025 15.4128 13.4551L18.2657 16.0314C18.5327 16.273 18.5336 16.6639 18.2666 16.9055C18.1336 17.0275 17.9577 17.0877 17.7828 17.0877C17.6087 17.0877 17.4337 17.0275 17.2998 16.9072L14.4124 14.3016C12.8935 15.4023 10.9677 16.0613 8.8748 16.0613C3.98131 16.0613 0 12.4585 0 8.03025C0 3.60199 3.98131 0 8.8748 0ZM8.8748 1.23695C4.73493 1.23695 1.3669 4.28396 1.3669 8.03025C1.3669 11.7765 4.73493 14.8244 8.8748 14.8244C13.0138 14.8244 16.3818 11.7765 16.3818 8.03025C16.3818 4.28396 13.0138 1.23695 8.8748 1.23695Z" fill="#3A3B42"/>
</svg>
