<svg width="30" height="30" viewBox="0 0 30 30" fill="none" xmlns="http://www.w3.org/2000/svg">
<g clip-path="url(#clip0_2054_25)">
<mask id="mask0_2054_25" style="mask-type:alpha" maskUnits="userSpaceOnUse" x="0" y="18" width="30" height="12">
<path fill-rule="evenodd" clip-rule="evenodd" d="M0 18.8664H30V29.9999H0V18.8664Z" fill="white"/>
</mask>
<g mask="url(#mask0_2054_25)">
<path fill-rule="evenodd" clip-rule="evenodd" d="M15.0019 21.1315C6.93175 21.1315 2.84082 22.2367 2.84082 24.4184C2.84082 26.6197 6.93175 27.7355 15.0019 27.7355C23.0701 27.7355 27.1592 26.6303 27.1592 24.4486C27.1592 22.2472 23.0701 21.1315 15.0019 21.1315ZM15.0017 30.0002C11.2915 30.0002 -0.000244141 30.0002 -0.000244141 24.4184C-0.000244141 19.4419 8.56231 18.8667 15.0017 18.8667C18.712 18.8667 29.9999 18.8667 29.9999 24.4485C29.9999 29.425 21.4393 30.0002 15.0017 30.0002Z" fill="#97A2B0"/>
</g>
<mask id="mask1_2054_25" style="mask-type:alpha" maskUnits="userSpaceOnUse" x="4" y="0" width="22" height="17">
<path fill-rule="evenodd" clip-rule="evenodd" d="M4.94336 -6.10352e-05H25.0572V16.0322H4.94336V-6.10352e-05Z" fill="white"/>
</mask>
<g mask="url(#mask1_2054_25)">
<path fill-rule="evenodd" clip-rule="evenodd" d="M15.0022 2.15408C10.9473 2.15408 7.64799 4.78269 7.64799 8.01524C7.63473 11.2372 10.9094 13.8643 14.9473 13.8764L15.0022 14.9544V13.8764C19.0553 13.8764 22.3526 11.2463 22.3526 8.01524C22.3526 4.78269 19.0553 2.15408 15.0022 2.15408ZM15.0022 16.0325H14.9416C9.40746 16.019 4.92448 12.421 4.94342 8.01231C4.94342 3.59605 9.45481 -0.000366211 15.0022 -0.000366211C20.5477 -0.000366211 25.0572 3.59605 25.0572 8.01684C25.0572 12.4376 20.5477 16.0325 15.0022 16.0325Z" fill="#97A2B0"/>
</g>
</g>
<defs>
<clipPath id="clip0_2054_25">
<rect width="30" height="30" fill="white"/>
</clipPath>
</defs>
</svg>
