<svg width="56" height="56" viewBox="0 0 56 56" fill="none" xmlns="http://www.w3.org/2000/svg">
<path d="M55.6549 27.8272C55.6549 43.1959 43.1962 55.6546 27.8275 55.6546C12.4588 55.6546 0 43.1959 0 27.8272C0 12.4585 12.4588 -0.000305176 27.8275 -0.000305176C43.1962 -0.000305176 55.6549 12.4585 55.6549 27.8272Z" fill="#3B2FBC"/>
<path d="M34.9199 26.833H28.9569V20.87C28.9569 20.6064 28.8522 20.3536 28.6658 20.1672C28.4794 19.9808 28.2266 19.8761 27.963 19.8761C27.6995 19.8761 27.4467 19.9808 27.2603 20.1672C27.0739 20.3536 26.9692 20.6064 26.9692 20.87V26.833H21.0062C20.7426 26.833 20.4898 26.9377 20.3034 27.1241C20.117 27.3105 20.0123 27.5633 20.0123 27.8268C20.0123 28.0904 20.117 28.3432 20.3034 28.5296C20.4898 28.716 20.7426 28.8207 21.0062 28.8207H26.9692V34.7837C26.9692 35.0473 27.0739 35.3001 27.2603 35.4865C27.4467 35.6728 27.6995 35.7776 27.963 35.7776C28.2266 35.7776 28.4794 35.6728 28.6658 35.4865C28.8522 35.3001 28.9569 35.0473 28.9569 34.7837V28.8207H34.9199C35.1835 28.8207 35.4363 28.716 35.6227 28.5296C35.809 28.3432 35.9137 28.0904 35.9137 27.8268C35.9137 27.5633 35.809 27.3105 35.6227 27.1241C35.4363 26.9377 35.1835 26.833 34.9199 26.833Z" fill="white"/>
</svg>
