<svg width="30" height="30" viewBox="0 0 30 30" fill="none" xmlns="http://www.w3.org/2000/svg">
<path fill-rule="evenodd" clip-rule="evenodd" d="M8.54163 23.1103C7.96395 23.1103 7.49512 22.6415 7.49512 22.0638V12.4917C7.49512 11.914 7.96395 11.4452 8.54163 11.4452C9.1193 11.4452 9.58814 11.914 9.58814 12.4917V22.0638C9.58814 22.6415 9.1193 23.1103 8.54163 23.1103Z" fill="#97A2B0"/>
<path fill-rule="evenodd" clip-rule="evenodd" d="M15.0536 23.1076C14.4759 23.1076 14.0071 22.6388 14.0071 22.0611V7.90806C14.0071 7.33039 14.4759 6.86155 15.0536 6.86155C15.6313 6.86155 16.1001 7.33039 16.1001 7.90806V22.0611C16.1001 22.6388 15.6313 23.1076 15.0536 23.1076Z" fill="#97A2B0"/>
<path fill-rule="evenodd" clip-rule="evenodd" d="M21.4591 23.1089C20.8814 23.1089 20.4126 22.6401 20.4126 22.0624V17.5499C20.4126 16.9722 20.8814 16.5033 21.4591 16.5033C22.0368 16.5033 22.5056 16.9722 22.5056 17.5499V22.0624C22.5056 22.6401 22.0368 23.1089 21.4591 23.1089Z" fill="#97A2B0"/>
<path fill-rule="evenodd" clip-rule="evenodd" d="M8.46139 2.09297C4.59348 2.09297 2.09302 4.73995 2.09302 8.83949V21.1604C2.09302 25.26 4.59348 27.9069 8.46139 27.9069H21.5386C25.4079 27.9069 27.907 25.26 27.907 21.1604V8.83949C27.907 4.73995 25.4079 2.09297 21.5386 2.09297H8.46139ZM21.5386 30H8.4614C3.40047 30 0 26.4474 0 21.1605V8.83953C0 3.55256 3.40047 0 8.4614 0H21.5386C26.5995 0 30 3.55256 30 8.83953V21.1605C30 26.4474 26.5995 30 21.5386 30Z" fill="#97A2B0"/>
</svg>
